<mxfile host="app.diagrams.net" modified="2024-02-07T00:35:12.669Z" agent="Mozilla/5.0 (Windows NT 10.0; Win64; x64) AppleWebKit/537.36 (KHTML, like Gecko) Chrome/121.0.0.0 Safari/537.36" etag="Dll0T0y2zsnJTrdPIxGn" version="23.1.1" type="github">
  <diagram name="Page-1" id="CEYNCOzHo_BfC6nyV0vv">
    <mxGraphModel dx="1674" dy="738" grid="1" gridSize="10" guides="1" tooltips="1" connect="1" arrows="1" fold="1" page="1" pageScale="1" pageWidth="850" pageHeight="1100" math="0" shadow="0">
      <root>
        <mxCell id="0" />
        <mxCell id="1" parent="0" />
        <mxCell id="wUC-l2os1INPDcVMCQsm-1" value="" style="verticalLabelPosition=bottom;verticalAlign=top;html=1;shape=process;whiteSpace=wrap;rounded=1;size=0.14;arcSize=6;" vertex="1" parent="1">
          <mxGeometry x="230" y="160" width="100" height="60" as="geometry" />
        </mxCell>
        <mxCell id="wUC-l2os1INPDcVMCQsm-2" value="main()" style="text;strokeColor=none;align=center;fillColor=none;html=1;verticalAlign=middle;whiteSpace=wrap;rounded=0;" vertex="1" parent="1">
          <mxGeometry x="250" y="175" width="60" height="30" as="geometry" />
        </mxCell>
        <mxCell id="wUC-l2os1INPDcVMCQsm-3" value="read_buttons()" style="rounded=0;whiteSpace=wrap;html=1;" vertex="1" parent="1">
          <mxGeometry x="60" y="290" width="100" height="40" as="geometry" />
        </mxCell>
        <mxCell id="wUC-l2os1INPDcVMCQsm-4" value="decode_buttons()" style="rounded=0;whiteSpace=wrap;html=1;" vertex="1" parent="1">
          <mxGeometry x="170" y="290" width="100" height="40" as="geometry" />
        </mxCell>
        <mxCell id="wUC-l2os1INPDcVMCQsm-5" value="sw_fsm()" style="rounded=0;whiteSpace=wrap;html=1;" vertex="1" parent="1">
          <mxGeometry x="290" y="290" width="100" height="40" as="geometry" />
        </mxCell>
        <mxCell id="wUC-l2os1INPDcVMCQsm-6" value="output_sm()" style="rounded=0;whiteSpace=wrap;html=1;" vertex="1" parent="1">
          <mxGeometry x="400" y="290" width="100" height="40" as="geometry" />
        </mxCell>
        <mxCell id="wUC-l2os1INPDcVMCQsm-10" value="" style="endArrow=classic;html=1;rounded=0;entryX=0.25;entryY=1;entryDx=0;entryDy=0;" edge="1" parent="1" target="wUC-l2os1INPDcVMCQsm-1">
          <mxGeometry width="50" height="50" relative="1" as="geometry">
            <mxPoint x="100" y="290" as="sourcePoint" />
            <mxPoint x="150" y="240" as="targetPoint" />
          </mxGeometry>
        </mxCell>
        <mxCell id="wUC-l2os1INPDcVMCQsm-23" value="buttons" style="edgeLabel;html=1;align=center;verticalAlign=middle;resizable=0;points=[];" vertex="1" connectable="0" parent="wUC-l2os1INPDcVMCQsm-10">
          <mxGeometry x="-0.0328" relative="1" as="geometry">
            <mxPoint as="offset" />
          </mxGeometry>
        </mxCell>
        <mxCell id="wUC-l2os1INPDcVMCQsm-11" value="" style="endArrow=classic;html=1;rounded=0;entryX=0.5;entryY=0;entryDx=0;entryDy=0;exitX=0.34;exitY=1.037;exitDx=0;exitDy=0;exitPerimeter=0;" edge="1" parent="1">
          <mxGeometry width="50" height="50" relative="1" as="geometry">
            <mxPoint x="250" y="222.22000000000003" as="sourcePoint" />
            <mxPoint x="206" y="290" as="targetPoint" />
          </mxGeometry>
        </mxCell>
        <mxCell id="wUC-l2os1INPDcVMCQsm-24" value="buttons" style="edgeLabel;html=1;align=center;verticalAlign=middle;resizable=0;points=[];" vertex="1" connectable="0" parent="wUC-l2os1INPDcVMCQsm-11">
          <mxGeometry x="-0.1467" y="-1" relative="1" as="geometry">
            <mxPoint as="offset" />
          </mxGeometry>
        </mxCell>
        <mxCell id="wUC-l2os1INPDcVMCQsm-25" value="&amp;amp;step_delay" style="edgeLabel;html=1;align=center;verticalAlign=middle;resizable=0;points=[];" vertex="1" connectable="0" parent="wUC-l2os1INPDcVMCQsm-11">
          <mxGeometry x="0.2733" y="-1" relative="1" as="geometry">
            <mxPoint as="offset" />
          </mxGeometry>
        </mxCell>
        <mxCell id="wUC-l2os1INPDcVMCQsm-26" value="&amp;amp;dir, &amp;amp;mode" style="edgeLabel;html=1;align=center;verticalAlign=middle;resizable=0;points=[];" vertex="1" connectable="0" parent="wUC-l2os1INPDcVMCQsm-11">
          <mxGeometry x="-0.4381" y="-2" relative="1" as="geometry">
            <mxPoint as="offset" />
          </mxGeometry>
        </mxCell>
        <mxCell id="wUC-l2os1INPDcVMCQsm-13" value="" style="endArrow=classic;html=1;rounded=0;entryX=0.392;entryY=0.015;entryDx=0;entryDy=0;entryPerimeter=0;" edge="1" parent="1">
          <mxGeometry width="50" height="50" relative="1" as="geometry">
            <mxPoint x="280" y="220" as="sourcePoint" />
            <mxPoint x="319.19999999999993" y="290.6" as="targetPoint" />
          </mxGeometry>
        </mxCell>
        <mxCell id="wUC-l2os1INPDcVMCQsm-28" value="dir, mode" style="edgeLabel;html=1;align=center;verticalAlign=middle;resizable=0;points=[];" vertex="1" connectable="0" parent="wUC-l2os1INPDcVMCQsm-13">
          <mxGeometry x="-0.1133" relative="1" as="geometry">
            <mxPoint as="offset" />
          </mxGeometry>
        </mxCell>
        <mxCell id="wUC-l2os1INPDcVMCQsm-14" value="" style="endArrow=classic;html=1;rounded=0;entryX=0.75;entryY=1;entryDx=0;entryDy=0;" edge="1" parent="1" target="wUC-l2os1INPDcVMCQsm-1">
          <mxGeometry width="50" height="50" relative="1" as="geometry">
            <mxPoint x="340" y="290" as="sourcePoint" />
            <mxPoint x="390" y="240" as="targetPoint" />
          </mxGeometry>
        </mxCell>
        <mxCell id="wUC-l2os1INPDcVMCQsm-29" value="sm_code" style="edgeLabel;html=1;align=center;verticalAlign=middle;resizable=0;points=[];" vertex="1" connectable="0" parent="wUC-l2os1INPDcVMCQsm-14">
          <mxGeometry x="-0.3646" y="-1" relative="1" as="geometry">
            <mxPoint as="offset" />
          </mxGeometry>
        </mxCell>
        <mxCell id="wUC-l2os1INPDcVMCQsm-15" value="" style="endArrow=classic;html=1;rounded=0;entryX=0.5;entryY=0;entryDx=0;entryDy=0;" edge="1" parent="1" target="wUC-l2os1INPDcVMCQsm-6">
          <mxGeometry width="50" height="50" relative="1" as="geometry">
            <mxPoint x="315" y="220" as="sourcePoint" />
            <mxPoint x="365" y="170" as="targetPoint" />
          </mxGeometry>
        </mxCell>
        <mxCell id="wUC-l2os1INPDcVMCQsm-30" value="sm_code" style="edgeLabel;html=1;align=center;verticalAlign=middle;resizable=0;points=[];" vertex="1" connectable="0" parent="wUC-l2os1INPDcVMCQsm-15">
          <mxGeometry x="-0.1326" y="-2" relative="1" as="geometry">
            <mxPoint as="offset" />
          </mxGeometry>
        </mxCell>
        <mxCell id="wUC-l2os1INPDcVMCQsm-16" value="system_init()" style="rounded=0;whiteSpace=wrap;html=1;" vertex="1" parent="1">
          <mxGeometry x="410" y="160" width="120" height="60" as="geometry" />
        </mxCell>
        <mxCell id="wUC-l2os1INPDcVMCQsm-19" value="" style="shape=flexArrow;endArrow=classic;html=1;rounded=0;" edge="1" parent="1">
          <mxGeometry width="50" height="50" relative="1" as="geometry">
            <mxPoint x="110" y="390" as="sourcePoint" />
            <mxPoint x="110" y="330" as="targetPoint" />
          </mxGeometry>
        </mxCell>
        <mxCell id="wUC-l2os1INPDcVMCQsm-20" value="button_status" style="edgeLabel;html=1;align=center;verticalAlign=middle;resizable=0;points=[];" vertex="1" connectable="0" parent="wUC-l2os1INPDcVMCQsm-19">
          <mxGeometry x="-0.26" y="1" relative="1" as="geometry">
            <mxPoint as="offset" />
          </mxGeometry>
        </mxCell>
        <mxCell id="wUC-l2os1INPDcVMCQsm-21" value="" style="shape=flexArrow;endArrow=classic;html=1;rounded=0;exitX=0.544;exitY=1.065;exitDx=0;exitDy=0;exitPerimeter=0;" edge="1" parent="1">
          <mxGeometry width="50" height="50" relative="1" as="geometry">
            <mxPoint x="450.2000000000001" y="330" as="sourcePoint" />
            <mxPoint x="449.8" y="387.4" as="targetPoint" />
            <Array as="points" />
          </mxGeometry>
        </mxCell>
        <mxCell id="wUC-l2os1INPDcVMCQsm-22" value="SM_COILS" style="edgeLabel;html=1;align=center;verticalAlign=middle;resizable=0;points=[];" vertex="1" connectable="0" parent="wUC-l2os1INPDcVMCQsm-21">
          <mxGeometry x="-0.1289" relative="1" as="geometry">
            <mxPoint as="offset" />
          </mxGeometry>
        </mxCell>
        <mxCell id="wUC-l2os1INPDcVMCQsm-41" style="edgeStyle=orthogonalEdgeStyle;rounded=0;orthogonalLoop=1;jettySize=auto;html=1;entryX=0.5;entryY=0;entryDx=0;entryDy=0;" edge="1" parent="1" source="wUC-l2os1INPDcVMCQsm-31" target="wUC-l2os1INPDcVMCQsm-32">
          <mxGeometry relative="1" as="geometry" />
        </mxCell>
        <mxCell id="wUC-l2os1INPDcVMCQsm-31" value="main()" style="shape=process;whiteSpace=wrap;html=1;backgroundOutline=1;" vertex="1" parent="1">
          <mxGeometry x="570" y="240" width="120" height="60" as="geometry" />
        </mxCell>
        <mxCell id="wUC-l2os1INPDcVMCQsm-42" style="edgeStyle=orthogonalEdgeStyle;rounded=0;orthogonalLoop=1;jettySize=auto;html=1;entryX=0.5;entryY=0;entryDx=0;entryDy=0;" edge="1" parent="1" source="wUC-l2os1INPDcVMCQsm-32" target="wUC-l2os1INPDcVMCQsm-33">
          <mxGeometry relative="1" as="geometry" />
        </mxCell>
        <mxCell id="wUC-l2os1INPDcVMCQsm-32" value="system_init()" style="rounded=0;whiteSpace=wrap;html=1;" vertex="1" parent="1">
          <mxGeometry x="570" y="320" width="120" height="60" as="geometry" />
        </mxCell>
        <mxCell id="wUC-l2os1INPDcVMCQsm-44" style="edgeStyle=orthogonalEdgeStyle;rounded=0;orthogonalLoop=1;jettySize=auto;html=1;entryX=0.5;entryY=0;entryDx=0;entryDy=0;" edge="1" parent="1" source="wUC-l2os1INPDcVMCQsm-33" target="wUC-l2os1INPDcVMCQsm-34">
          <mxGeometry relative="1" as="geometry" />
        </mxCell>
        <mxCell id="wUC-l2os1INPDcVMCQsm-33" value="" style="ellipse;whiteSpace=wrap;html=1;aspect=fixed;" vertex="1" parent="1">
          <mxGeometry x="615" y="410" width="30" height="30" as="geometry" />
        </mxCell>
        <mxCell id="wUC-l2os1INPDcVMCQsm-45" style="edgeStyle=orthogonalEdgeStyle;rounded=0;orthogonalLoop=1;jettySize=auto;html=1;entryX=0;entryY=0.5;entryDx=0;entryDy=0;" edge="1" parent="1" source="wUC-l2os1INPDcVMCQsm-34" target="wUC-l2os1INPDcVMCQsm-35">
          <mxGeometry relative="1" as="geometry" />
        </mxCell>
        <mxCell id="wUC-l2os1INPDcVMCQsm-46" style="edgeStyle=orthogonalEdgeStyle;rounded=0;orthogonalLoop=1;jettySize=auto;html=1;entryX=0.5;entryY=0;entryDx=0;entryDy=0;" edge="1" parent="1" source="wUC-l2os1INPDcVMCQsm-34" target="wUC-l2os1INPDcVMCQsm-36">
          <mxGeometry relative="1" as="geometry" />
        </mxCell>
        <mxCell id="wUC-l2os1INPDcVMCQsm-34" value="while(1)" style="rhombus;whiteSpace=wrap;html=1;" vertex="1" parent="1">
          <mxGeometry x="590" y="470" width="80" height="80" as="geometry" />
        </mxCell>
        <mxCell id="wUC-l2os1INPDcVMCQsm-35" value="exit" style="ellipse;whiteSpace=wrap;html=1;" vertex="1" parent="1">
          <mxGeometry x="710" y="485" width="70" height="50" as="geometry" />
        </mxCell>
        <mxCell id="wUC-l2os1INPDcVMCQsm-47" style="edgeStyle=orthogonalEdgeStyle;rounded=0;orthogonalLoop=1;jettySize=auto;html=1;" edge="1" parent="1" source="wUC-l2os1INPDcVMCQsm-36" target="wUC-l2os1INPDcVMCQsm-40">
          <mxGeometry relative="1" as="geometry" />
        </mxCell>
        <mxCell id="wUC-l2os1INPDcVMCQsm-36" value="read_buttons()" style="rounded=0;whiteSpace=wrap;html=1;" vertex="1" parent="1">
          <mxGeometry x="570" y="600" width="120" height="60" as="geometry" />
        </mxCell>
        <mxCell id="wUC-l2os1INPDcVMCQsm-52" style="edgeStyle=orthogonalEdgeStyle;rounded=0;orthogonalLoop=1;jettySize=auto;html=1;entryX=0.5;entryY=0;entryDx=0;entryDy=0;" edge="1" parent="1" source="wUC-l2os1INPDcVMCQsm-38" target="wUC-l2os1INPDcVMCQsm-39">
          <mxGeometry relative="1" as="geometry" />
        </mxCell>
        <mxCell id="wUC-l2os1INPDcVMCQsm-38" value="sw_fsm()" style="rounded=0;whiteSpace=wrap;html=1;" vertex="1" parent="1">
          <mxGeometry x="570" y="760" width="120" height="60" as="geometry" />
        </mxCell>
        <mxCell id="wUC-l2os1INPDcVMCQsm-53" style="edgeStyle=orthogonalEdgeStyle;rounded=0;orthogonalLoop=1;jettySize=auto;html=1;entryX=0;entryY=0.5;entryDx=0;entryDy=0;" edge="1" parent="1" source="wUC-l2os1INPDcVMCQsm-39" target="wUC-l2os1INPDcVMCQsm-34">
          <mxGeometry relative="1" as="geometry">
            <mxPoint x="530" y="590" as="targetPoint" />
            <Array as="points">
              <mxPoint x="550" y="870" />
              <mxPoint x="550" y="510" />
            </Array>
          </mxGeometry>
        </mxCell>
        <mxCell id="wUC-l2os1INPDcVMCQsm-39" value="output_sm()" style="rounded=0;whiteSpace=wrap;html=1;" vertex="1" parent="1">
          <mxGeometry x="570" y="840" width="120" height="60" as="geometry" />
        </mxCell>
        <mxCell id="wUC-l2os1INPDcVMCQsm-49" style="edgeStyle=orthogonalEdgeStyle;rounded=0;orthogonalLoop=1;jettySize=auto;html=1;" edge="1" parent="1" source="wUC-l2os1INPDcVMCQsm-40">
          <mxGeometry relative="1" as="geometry">
            <mxPoint x="720" y="710" as="targetPoint" />
          </mxGeometry>
        </mxCell>
        <mxCell id="wUC-l2os1INPDcVMCQsm-40" value="decode_buttons()" style="rounded=0;whiteSpace=wrap;html=1;" vertex="1" parent="1">
          <mxGeometry x="570" y="680" width="120" height="60" as="geometry" />
        </mxCell>
        <mxCell id="wUC-l2os1INPDcVMCQsm-50" value="main()" style="rounded=0;whiteSpace=wrap;html=1;" vertex="1" parent="1">
          <mxGeometry x="720" y="700" width="60" height="40" as="geometry" />
        </mxCell>
        <mxCell id="wUC-l2os1INPDcVMCQsm-51" style="edgeStyle=orthogonalEdgeStyle;rounded=0;orthogonalLoop=1;jettySize=auto;html=1;entryX=1.004;entryY=0.624;entryDx=0;entryDy=0;entryPerimeter=0;" edge="1" parent="1" source="wUC-l2os1INPDcVMCQsm-50" target="wUC-l2os1INPDcVMCQsm-38">
          <mxGeometry relative="1" as="geometry" />
        </mxCell>
      </root>
    </mxGraphModel>
  </diagram>
</mxfile>
